<?xml version="1.0" standalone="no"?>
<!DOCTYPE svg PUBLIC "-//W3C//DTD SVG 20010904//EN"
 "http://www.w3.org/TR/2001/REC-SVG-20010904/DTD/svg10.dtd">
<svg version="1.0" xmlns="http://www.w3.org/2000/svg"
 width="512.000000pt" height="512.000000pt" viewBox="0 0 512.000000 512.000000"
 preserveAspectRatio="xMidYMid meet">

<g transform="translate(0.000000,512.000000) scale(0.100000,-0.100000)"
fill="#223440" stroke="none">
<path d="M1337 4674 c-82 -20 -203 -85 -272 -147 -76 -68 -148 -179 -181 -281
-26 -77 -27 -92 -28 -296 l-1 -215 1690 -3 c930 -1 1695 0 1702 2 17 7 -7 89
-54 185 -50 105 -169 224 -273 275 -138 67 -141 68 -605 75 -404 7 -423 8
-485 30 -92 32 -147 66 -300 185 -148 115 -240 167 -340 190 -91 22 -765 22
-853 0z"/>
<path d="M606 3389 c-193 -66 -314 -260 -286 -456 14 -100 390 -1845 412
-1913 71 -222 231 -404 443 -506 176 -85 73 -79 1385 -79 l1165 0 79 23 c268
77 489 284 576 538 12 32 111 480 221 994 217 1011 219 1023 181 1132 -46 131
-153 234 -281 272 -49 14 -243 16 -1945 16 -1876 -1 -1891 -1 -1950 -21z
m1796 -862 c29 -14 75 -48 102 -76 l49 -49 65 55 c94 80 138 98 242 98 71 0
94 -4 140 -26 70 -33 136 -99 169 -169 22 -47 26 -68 26 -150 -1 -82 -4 -102
-28 -150 -24 -49 -368 -492 -450 -579 -18 -18 -50 -42 -72 -52 -80 -37 -177
-16 -242 52 -81 86 -426 530 -451 579 -24 48 -27 67 -27 150 0 82 4 103 27
152 27 59 91 129 143 155 96 51 216 55 307 10z"/>
</g>
</svg>
