<?xml version="1.0" standalone="no"?>
<!DOCTYPE svg PUBLIC "-//W3C//DTD SVG 20010904//EN"
 "http://www.w3.org/TR/2001/REC-SVG-20010904/DTD/svg10.dtd">
<svg version="1.0" xmlns="http://www.w3.org/2000/svg"
 width="512.000000pt" height="512.000000pt" viewBox="0 0 512.000000 512.000000"
 preserveAspectRatio="xMidYMid meet">

<g transform="translate(0.000000,512.000000) scale(0.100000,-0.100000)"
fill="#223440" stroke="none">
<path d="M1275 4865 c-561 -89 -1018 -472 -1194 -1000 -223 -667 27 -1418 731
-2200 395 -438 878 -844 1513 -1271 l235 -158 235 158 c635 427 1118 833 1513
1271 704 782 954 1533 731 2200 -201 601 -772 1014 -1404 1015 -375 0 -716
-128 -995 -374 -41 -36 -77 -66 -80 -66 -3 0 -39 30 -80 66 -226 200 -506 327
-800 363 -110 14 -304 12 -405 -4z"/>
</g>
</svg>
